<?xml version="1.0" encoding="UTF-8"?>
<svg id="Layer_2" data-name="Layer 2" xmlns="http://www.w3.org/2000/svg" viewBox="0 0 1319.97 343.81">
  <defs>
    <style>
      .cls-1 {
        fill: #0a14c9;
      }
    </style>
  </defs>
  <g id="Layer_2-2" data-name="Layer 2">
    <g id="FA">
      <g>
        <g>
          <path class="cls-1" d="M1319.97,256.14h-48.65c-5.71-98.3-87.49-176.53-187.21-176.53s-181.49,78.23-187.2,176.53h-48.9V31.01h48.58v90.84l19.38-19.88c.49-.51.99-1.01,1.49-1.51,44.78-44.78,103.97-69.45,166.65-69.45s121.88,24.67,166.66,69.45c42.16,42.16,66.49,97.09,69.2,155.68Z"/>
          <path class="cls-1" d="M1083.99,168.02c-1.84,47.76-40.14,86.05-87.9,87.9,47.76,1.84,86.05,40.14,87.9,87.9,1.84-47.76,40.14-86.05,87.9-87.9-47.76-1.84-86.05-40.14-87.9-87.9Z"/>
        </g>
        <g>
          <path class="cls-1" d="M189.74,90.57l53.57-26.47-16.58-32.85-75.58,37.63v26.15l54.85,74.3c3.4,4.68,5.1,9.89,5.1,15.62,0,7.23-2.61,13.66-7.81,19.29-5.21,5.64-11.75,8.45-19.61,8.45H63.14c-7.02,0-12.97-2.44-17.86-7.33-4.89-4.89-7.33-10.95-7.33-18.18v-46.56H0v50.38c0,11.7,3.03,22.64,9.09,32.85,6.06,10.2,14.14,18.29,24.24,24.24,10.1,5.95,21.1,8.93,33.01,8.93h114.16c12.96,0,24.55-3.19,34.76-9.57,10.2-6.38,18.18-14.83,23.92-25.35,5.74-10.52,8.61-21.63,8.61-33.32,0-15.09-4.68-28.7-14.03-40.82l-44.01-57.4Z"/>
          <rect class="cls-1" x="392.32" y="64.73" width="38.59" height="38.59"/>
          <rect class="cls-1" x="447.49" y="64.73" width="38.27" height="38.59"/>
          <path class="cls-1" d="M488.94,198.35v-57.72h-37.63v58.04c0,4.04-1.33,7.39-3.99,10.04-2.66,2.66-5.9,3.99-9.73,3.99h-97.26c-4.04,0-7.29-1.33-9.73-3.99-2.45-2.66-3.67-6-3.67-10.04V29.62h-37.95v170.01c0,10.42,2.55,20.04,7.65,28.86,5.1,8.82,12.06,15.79,20.89,20.89,8.82,5.1,18.44,7.65,28.86,7.65h84.19c10.63,0,20.41-2.6,29.34-7.81,8.93-5.21,15.99-12.33,21.21-21.37,5.21-9.03,7.81-18.86,7.81-29.5Z"/>
          <polygon class="cls-1" points="699.89 0 661.3 0 661.3 38.27 699.57 38.27 699.89 0"/>
          <path class="cls-1" d="M732.1,92.64c-4.68-8.18-11.06-14.67-19.13-19.45-8.08-4.78-17.01-7.18-26.79-7.18h-16.9c-12.55,0-23.49,3.88-32.85,11.64-9.36,7.76-15.2,17.7-17.54,29.82l-4.78,25.83c-.64,3.4-.96,6.91-.96,10.52,0,9.14,2.28,17.59,6.86,25.35,4.57,7.76,10.79,13.93,18.65,18.5,7.86,4.57,16.69,6.86,26.47,6.86h15.63c7.65,0,14.67-1.06,21.05-3.19v7.65c0,4.26-1.33,7.6-3.99,10.05-2.66,2.45-5.9,3.67-9.73,3.67h-89.29c-.27,0-.52.03-.78.07-.37-.04-.77-.07-1.22-.07h-13.71c-3.62,0-6.81-1.17-9.57-3.51-2.76-2.34-4.15-5.21-4.15-8.61v-59.95h-37.95v107.47c0,10.41-1.75,18.54-5.26,24.39-3.51,5.85-8.56,10.47-15.15,13.87l-29.97,15.63,17.54,33.48,29.66-16.58c13.39-7.65,23.54-16.53,30.45-26.63,6.91-10.1,10.36-22.48,10.36-37.15v-7.02c2.34,2.98,5.37,5.21,9.09,6.7,3.72,1.49,7.38,2.23,11,2.23h7.65c.4,0,.77-.03,1.12-.09.28.05.57.09.88.09h81.64c10.63,0,20.46-2.6,29.5-7.81,9.03-5.21,16.15-12.28,21.37-21.21,5.21-8.93,7.81-18.82,7.81-29.66v-79.08c0-9.57-2.34-18.44-7.01-26.63ZM701.8,151.79h-42.73c-2.77,0-5-1.06-6.7-3.19-1.7-2.12-2.23-4.57-1.59-7.34l3.83-23.92c.42-2.55,1.7-4.73,3.83-6.54,2.12-1.8,4.47-2.71,7.02-2.71h26.15c2.76,0,5.15,1.07,7.18,3.19,2.02,2.13,3.03,4.68,3.03,7.65v32.85Z"/>
        </g>
      </g>
    </g>
  </g>
</svg>